<svg width="634" height="881" viewBox="0 0 634 881" fill="none" xmlns="http://www.w3.org/2000/svg">
<path d="M187.362 125.24L47.0999 111.918L187.362 97.3039V61.2204L47.8756 46.3473L187.362 33.1555V0.693329L2.24193 23.585L2.24192 63.8071L129.835 78.6802L2.24192 93.6826L2.24192 133.646L187.362 156.408V125.24Z" fill="#FF8D54"/>
<path d="M30.6821 207.731H82.2624L82.2624 251.574H110.703V207.731H158.922L158.922 254.031H187.362V174.363L2.24192 174.363L2.24192 254.419H30.6821L30.6821 207.731Z" fill="#FF8D54"/>
<path d="M187.362 274.011H2.24191L2.24191 353.938H30.6821L30.6821 307.637H187.362V274.011Z" fill="#FF8D54"/>
<path d="M0.173528 417.069C0.173527 446.945 15.8157 465.569 45.0315 465.569H84.5893V432.848H45.1608C34.5604 432.848 27.9674 428.321 27.9674 417.587C27.9674 406.206 35.0774 401.938 45.8072 401.938H143.797C154.526 401.938 161.636 406.206 161.636 417.587C161.636 428.321 155.044 432.848 144.314 432.848H107.729L107.729 465.569H144.443C173.788 465.569 189.43 446.945 189.43 417.069C189.43 386.418 173.142 368.053 143.667 368.053H45.9364C16.462 368.053 0.173529 386.418 0.173528 417.069Z" fill="#FF8D54"/>
<path d="M0.173523 535.311C0.173522 566.479 16.7206 585.362 46.8414 585.362H142.762C172.883 585.362 189.43 566.479 189.43 535.311C189.43 504.142 172.883 485.13 142.762 485.13H46.8414C16.7206 485.13 0.173524 504.142 0.173523 535.311ZM28.2259 535.311C28.2259 523.8 35.336 519.015 46.7121 519.015H142.892C154.268 519.015 161.378 523.8 161.378 535.311C161.378 546.821 154.268 551.477 142.892 551.477H46.7121C35.336 551.477 28.2259 546.821 28.2259 535.311Z" fill="#FF8D54"/>
<path d="M187.362 686.206L87.6919 665.642L187.362 645.078V607.055H2.2419L2.2419 636.93L120.398 636.284L1.98335 661.115L1.98335 670.557L119.752 694.871L2.2419 694.354L2.24189 725.393H187.362V686.206Z" fill="#FF8D54"/>
<path d="M30.6821 782.507H82.2624V826.35H110.703L110.703 782.507H158.922V828.808H187.362L187.362 749.14H2.24189L2.24189 829.196H30.6821L30.6821 782.507Z" fill="#FF8D54"/>
<path d="M44.6437 874.395L132.55 879.827H187.362V848.399H132.55L44.6437 853.831V874.395ZM2.24189 848.141L2.24189 880.085H34.1725L34.1725 848.141H2.24189Z" fill="#FF8D54"/>
<path d="M409.49 125.24L269.228 111.918L409.49 97.3039V61.2204L270.004 46.3473L409.49 33.1555V0.693329L224.37 23.585V63.8071L351.963 78.6802L224.37 93.6826L224.37 133.646L409.49 156.408V125.24Z" fill="#FF8D54"/>
<path d="M252.81 207.731H304.39V251.574H332.831V207.731H381.05V254.031H409.49V174.363L224.37 174.363V254.419H252.81V207.731Z" fill="#FF8D54"/>
<path d="M409.49 274.011H224.37V353.938H252.81V307.637H409.49V274.011Z" fill="#FF8D54"/>
<path d="M222.302 417.069C222.302 446.945 237.944 465.569 267.16 465.569H306.717V432.848H267.289C256.688 432.848 250.095 428.321 250.095 417.587C250.095 406.206 257.206 401.938 267.935 401.938H365.925C376.654 401.938 383.765 406.206 383.765 417.587C383.765 428.321 377.172 432.848 366.442 432.848H329.857V465.569H366.571C395.916 465.569 411.558 446.945 411.558 417.069C411.558 386.418 395.27 368.053 365.795 368.053H268.065C238.59 368.053 222.302 386.418 222.302 417.069Z" fill="#FF8D54"/>
<path d="M222.302 535.311C222.302 566.479 238.849 585.362 268.969 585.362H364.891C395.011 585.362 411.558 566.479 411.558 535.311C411.558 504.142 395.011 485.13 364.891 485.13H268.969C238.849 485.13 222.302 504.142 222.302 535.311ZM250.354 535.311C250.354 523.8 257.464 519.015 268.84 519.015H365.02C376.396 519.015 383.506 523.8 383.506 535.311C383.506 546.821 376.396 551.477 365.02 551.477H268.84C257.464 551.477 250.354 546.821 250.354 535.311Z" fill="#FF8D54"/>
<path d="M409.49 686.206L309.82 665.642L409.49 645.078L409.49 607.055H224.37V636.93L342.526 636.284L224.111 661.115V670.557L341.88 694.871L224.37 694.354V725.393H409.49V686.206Z" fill="#FF8D54"/>
<path d="M252.81 782.507H304.39V826.35H332.831V782.507H381.05V828.808H409.49V749.14H224.37L224.37 829.196H252.81V782.507Z" fill="#FF8D54"/>
<path d="M266.772 874.395L354.678 879.827H409.49V848.399H354.678L266.772 853.831V874.395ZM224.37 848.141V880.085H256.301V848.141H224.37Z" fill="#FF8D54"/>
<path d="M631.14 125.24L490.877 111.918L631.14 97.3039V61.2204L491.653 46.3473L631.14 33.1555V0.693329L446.019 23.585V63.8071L573.613 78.6802L446.019 93.6826V133.646L631.14 156.408V125.24Z" fill="#FF8D54"/>
<path d="M474.46 207.731H526.04V251.574H554.48V207.731H602.699V254.031H631.14V174.363L446.019 174.363V254.419H474.46V207.731Z" fill="#FF8D54"/>
<path d="M631.14 274.011H446.019L446.019 353.938H474.46V307.637H631.139L631.14 274.011Z" fill="#FF8D54"/>
<path d="M443.951 417.069C443.951 446.945 459.593 465.569 488.809 465.569H528.367V432.848H488.938C478.338 432.848 471.745 428.321 471.745 417.587C471.745 406.206 478.855 401.938 489.585 401.938H587.574C598.304 401.938 605.414 406.206 605.414 417.587C605.414 428.321 598.821 432.848 588.091 432.848H551.507V465.569H588.221C617.566 465.569 633.208 446.945 633.208 417.069C633.208 386.418 616.919 368.053 587.445 368.053H489.714C460.24 368.053 443.951 386.418 443.951 417.069Z" fill="#FF8D54"/>
<path d="M443.951 535.311C443.951 566.479 460.498 585.362 490.619 585.362H586.54C616.661 585.362 633.208 566.479 633.208 535.311C633.208 504.142 616.661 485.13 586.54 485.13H490.619C460.498 485.13 443.951 504.142 443.951 535.311ZM472.003 535.311C472.003 523.8 479.114 519.015 490.49 519.015H586.669C598.045 519.015 605.155 523.8 605.155 535.311C605.155 546.821 598.045 551.477 586.669 551.477H490.49C479.114 551.477 472.003 546.821 472.003 535.311Z" fill="#FF8D54"/>
<path d="M631.139 686.206L531.469 665.642L631.139 645.078V607.055H446.019V636.93L564.176 636.284L445.761 661.115V670.557L563.529 694.871L446.019 694.354V725.393H631.139V686.206Z" fill="#FF8D54"/>
<path d="M474.46 782.507H526.04V826.35H554.48V782.507H602.699V828.808H631.139V749.14H446.019V829.196H474.46V782.507Z" fill="#FF8D54"/>
<path d="M488.421 874.395L576.327 879.827H631.139V848.399H576.327L488.421 853.831V874.395ZM446.019 848.141V880.085H477.95V848.141H446.019Z" fill="#FF8D54"/>
</svg>